<svg width="18" height="18" viewBox="0 0 18 18" fill="none" xmlns="http://www.w3.org/2000/svg"><g clip-path="url(#clip0_8687_2431)"><path fill-rule="evenodd" clip-rule="evenodd" d="M12.8535 0.283591C13.1293 0.0068459 13.5449 -0.0760927 13.9058 0.0735695L16.6415 1.20792C17.1315 1.4111 17.3654 1.9719 17.1649 2.46303L16.0488 5.19799C15.9013 5.55934 15.5504 5.79615 15.1602 5.79789C14.7699 5.79964 14.4171 5.56595 14.2664 5.20592L13.8248 4.15075L2.71905 8.89741C2.22935 9.10671 1.66268 8.87941 1.45338 8.3897C1.24407 7.89999 1.47138 7.33334 1.9611 7.12403L13.0802 2.37165L12.6469 1.33662C12.4961 0.97618 12.5776 0.560337 12.8535 0.283591ZM16.3928 7.04511C16.7338 7.04511 17.0609 7.18056 17.302 7.42168C17.543 7.66281 17.6786 7.98983 17.6786 8.33082V17.3308C17.6786 17.6859 17.3907 17.9736 17.0357 17.9736H13.8214C13.4664 17.9736 13.1786 17.6859 13.1786 17.3308V8.33082C13.1786 7.98983 13.3141 7.66281 13.5551 7.42168C13.7962 7.18056 14.1233 7.04511 14.4643 7.04511H16.3928ZM10.8734 9.35025C10.6323 9.10913 10.3053 8.97368 9.96427 8.97368H8.0357C7.6947 8.97368 7.36768 9.10913 7.12656 9.35025C6.88545 9.59138 6.74998 9.9184 6.74998 10.2594V17.3308C6.74998 17.6859 7.0378 17.9736 7.39284 17.9736H10.6071C10.9622 17.9736 11.25 17.6859 11.25 17.3308V10.2594C11.25 9.9184 11.1145 9.59138 10.8734 9.35025ZM3.5357 10.9023C3.87669 10.9023 4.20372 11.0377 4.44484 11.2788C4.68595 11.5199 4.82141 11.847 4.82141 12.188V17.3308C4.82141 17.6859 4.53359 17.9736 4.17855 17.9736H0.964268C0.609229 17.9736 0.321411 17.6859 0.321411 17.3308V12.188C0.321411 11.847 0.456869 11.5199 0.697988 11.2788C0.939107 11.0377 1.26613 10.9023 1.60713 10.9023H3.5357Z" fill="white"/></g><defs><clipPath id="clip0_8687_2431"><rect width="18" height="18" fill="white"/></clipPath></defs></svg>