<svg width="13" height="13" viewBox="0 0 13 13" fill="none" xmlns="http://www.w3.org/2000/svg" class="h-4 w-4"><g clip-path="url(#clip0_3159_70605)"><path fill-rule="evenodd" clip-rule="evenodd" d="M13 6.5C13 10.0899 10.0899 13 6.5 13C2.91015 13 0 10.0899 0 6.5C0 2.91015 2.91015 0 6.5 0C10.0899 0 13 2.91015 13 6.5ZM6.5 3.01786C6.88462 3.01786 7.19643 3.32966 7.19643 3.71429V5.80357H9.28571C9.67033 5.80357 9.98214 6.11538 9.98214 6.5C9.98214 6.88462 9.67033 7.19643 9.28571 7.19643H7.19643V9.28571C7.19643 9.67033 6.88462 9.98214 6.5 9.98214C6.11538 9.98214 5.80357 9.67033 5.80357 9.28571V7.19643H3.71429C3.32966 7.19643 3.01786 6.88462 3.01786 6.5C3.01786 6.11538 3.32966 5.80357 3.71429 5.80357H5.80357V3.71429C5.80357 3.32966 6.11538 3.01786 6.5 3.01786Z" fill="CurrentColor"/></g><defs><clipPath id="clip0_3159_70605"><rect width="13" height="13" fill="white"/></clipPath></defs></svg>