<svg width="15" height="14" viewBox="0 0 15 14" fill="none" xmlns="http://www.w3.org/2000/svg"><g clip-path="url(#clip0_139_4950)"><path fill-rule="evenodd" clip-rule="evenodd" d="M4.64155 1.16739C4.72811 0.940225 4.86212 0.731505 5.03734 0.556288C5.36382 0.229804 5.80663 0.0463867 6.26835 0.0463867H8.75017C9.21189 0.0463867 9.6547 0.229804 9.98118 0.556288C10.151 0.726078 10.2821 0.927329 10.3688 1.14634C10.9426 1.31718 11.4634 1.638 11.8756 2.07884C12.3787 2.61704 12.6926 3.3047 12.7695 4.03743L12.9315 5.51062C13.7709 5.57459 14.4099 6.34671 14.2989 7.19322L13.6059 12.4145C13.6037 12.4307 13.6015 12.4497 13.599 12.4711C13.5839 12.601 13.5586 12.818 13.477 13.0147C13.3013 13.4383 12.9315 13.7672 12.4931 13.8946C12.2847 13.9551 12.0727 13.9533 11.9429 13.9521L11.899 13.9519H3.16607C3.14849 13.9519 3.12793 13.9522 3.10486 13.9526C2.96323 13.955 2.72709 13.9589 2.50556 13.8946C2.06712 13.7672 1.69733 13.4383 1.52163 13.0147C1.42812 12.7892 1.40031 12.5209 1.38355 12.3592C1.37998 12.3247 1.37691 12.2951 1.37381 12.2718L0.713001 7.29308C0.697656 7.17746 0.674619 7.00248 0.699774 6.8113C0.781947 6.18679 1.25928 5.66628 1.8818 5.53697C1.94882 5.52305 2.01738 5.51371 2.0871 5.5093L2.24923 4.03545L2.24936 4.03421C2.3308 3.30499 2.64699 2.62196 3.15029 2.08802C3.55956 1.65384 4.07455 1.33735 4.64155 1.16739ZM4.79362 2.71249C4.58786 2.81188 4.40055 2.94849 4.2418 3.11691C3.96165 3.41411 3.78561 3.79425 3.74016 4.20013L3.59647 5.5064H11.422L11.2783 4.19948L11.2778 4.19523C11.2352 3.78672 11.0604 3.40329 10.7799 3.10327C10.6228 2.93526 10.4374 2.79856 10.2336 2.6985C10.1624 2.81435 10.0778 2.92173 9.98118 3.01831C9.81953 3.17997 9.62761 3.3082 9.41639 3.39569C9.20517 3.48318 8.97879 3.52821 8.75017 3.52821H6.26835C5.80663 3.52821 5.36382 3.34479 5.03734 3.01831C4.94413 2.9251 4.86257 2.8224 4.79362 2.71249ZM4.87055 8.48822C4.87055 8.14305 4.59073 7.86322 4.24555 7.86322C3.90038 7.86322 3.62055 8.14305 3.62055 8.48822V10.97C3.62055 11.3152 3.90038 11.595 4.24555 11.595C4.59073 11.595 4.87055 11.3152 4.87055 10.97V8.48822ZM7.50925 7.86322C7.85443 7.86322 8.13425 8.14305 8.13425 8.48822V10.97C8.13425 11.3152 7.85443 11.595 7.50925 11.595C7.16407 11.595 6.88425 11.3152 6.88425 10.97V8.48822C6.88425 8.14305 7.16407 7.86322 7.50925 7.86322ZM11.3979 8.48822C11.3979 8.14305 11.1181 7.86322 10.7729 7.86322C10.4278 7.86322 10.148 8.14305 10.148 8.48822V10.97C10.148 11.3152 10.4278 11.595 10.7729 11.595C11.1181 11.595 11.3979 11.3152 11.3979 10.97V8.48822Z" fill="white"/></g><defs><clipPath id="clip0_139_4950"><rect width="14" height="14" fill="white" transform="translate(0.5)"/></clipPath></defs></svg>