<svg width="19" height="18" viewBox="0 0 19 18" fill="none" xmlns="http://www.w3.org/2000/svg"><g clip-path="url(#clip0_8783_9622)"><path d="M0.75 2.57143C0.75 1.15127 1.90127 0 3.32143 0H5.89286C7.31302 0 8.46429 1.15127 8.46429 2.57143V5.14286C8.46429 6.56302 7.31302 7.71429 5.89286 7.71429H3.32143C1.90127 7.71429 0.75 6.56302 0.75 5.14286V2.57143Z" fill="white" fill-opacity="0.4"/><path d="M11.0357 2.57143C11.0357 1.15127 12.187 0 13.6071 0H16.1786C17.5987 0 18.75 1.15127 18.75 2.57143V5.14286C18.75 6.56302 17.5987 7.71429 16.1786 7.71429H13.6071C12.187 7.71429 11.0357 6.56302 11.0357 5.14286V2.57143Z" fill="white" fill-opacity="0.4"/><path d="M11.0357 12.8571C11.0357 11.437 12.187 10.2857 13.6071 10.2857H16.1786C17.5987 10.2857 18.75 11.437 18.75 12.8571V15.4286C18.75 16.8487 17.5987 18 16.1786 18H13.6071C12.187 18 11.0357 16.8487 11.0357 15.4286V12.8571Z" fill="white" fill-opacity="0.4"/><path d="M0.75 12.8571C0.75 11.437 1.90127 10.2857 3.32143 10.2857H5.89286C7.31302 10.2857 8.46429 11.437 8.46429 12.8571V15.4286C8.46429 16.8487 7.31302 18 5.89286 18H3.32143C1.90127 18 0.75 16.8487 0.75 15.4286V12.8571Z" fill="white" fill-opacity="0.4"/></g><defs><clipPath id="clip0_8783_9622"><rect width="18" height="18" fill="white" transform="translate(0.75)"/></clipPath></defs></svg>