<svg width="19" height="18" viewBox="0 0 19 18" fill="none" xmlns="http://www.w3.org/2000/svg"><path d="M0.25 1.24138C0.25 0.555784 0.805784 0 1.49138 0H3.35345C4.03904 0 4.59483 0.555784 4.59483 1.24138V3.10345C4.59483 3.78904 4.03904 4.34483 3.35345 4.34483H1.49138C0.805784 4.34483 0.25 3.78904 0.25 3.10345V1.24138Z" fill="white"/><path d="M0.25 8.06896C0.25 7.38337 0.805784 6.82759 1.49138 6.82759H3.35345C4.03904 6.82759 4.59483 7.38337 4.59483 8.06896V9.93103C4.59483 10.6166 4.03904 11.1724 3.35345 11.1724H1.49138C0.805784 11.1724 0.25 10.6166 0.25 9.93103V8.06896Z" fill="white"/><path d="M0.25 14.8966C0.25 14.211 0.805784 13.6552 1.49138 13.6552H3.35345C4.03904 13.6552 4.59483 14.211 4.59483 14.8966V16.7586C4.59483 17.4442 4.03904 18 3.35345 18H1.49138C0.805784 18 0.25 17.4442 0.25 16.7586V14.8966Z" fill="white"/><path d="M7.07759 1.24138C7.07759 0.555784 7.63337 0 8.31896 0H10.181C10.8666 0 11.4224 0.555784 11.4224 1.24138V3.10345C11.4224 3.78904 10.8666 4.34483 10.181 4.34483H8.31896C7.63337 4.34483 7.07759 3.78904 7.07759 3.10345V1.24138Z" fill="white"/><path d="M7.07759 8.06896C7.07759 7.38337 7.63337 6.82759 8.31896 6.82759H10.181C10.8666 6.82759 11.4224 7.38337 11.4224 8.06896V9.93103C11.4224 10.6166 10.8666 11.1724 10.181 11.1724H8.31896C7.63337 11.1724 7.07759 10.6166 7.07759 9.93103V8.06896Z" fill="white"/><path d="M7.07759 14.8966C7.07759 14.211 7.63337 13.6552 8.31896 13.6552H10.181C10.8666 13.6552 11.4224 14.211 11.4224 14.8966V16.7586C11.4224 17.4442 10.8666 18 10.181 18H8.31896C7.63337 18 7.07759 17.4442 7.07759 16.7586V14.8966Z" fill="white"/><path d="M13.9052 1.24138C13.9052 0.555784 14.461 0 15.1466 0H17.0086C17.6942 0 18.25 0.555784 18.25 1.24138V3.10345C18.25 3.78904 17.6942 4.34483 17.0086 4.34483H15.1466C14.461 4.34483 13.9052 3.78904 13.9052 3.10345V1.24138Z" fill="white"/><path d="M13.9052 8.06896C13.9052 7.38337 14.461 6.82759 15.1466 6.82759H17.0086C17.6942 6.82759 18.25 7.38337 18.25 8.06896V9.93103C18.25 10.6166 17.6942 11.1724 17.0086 11.1724H15.1466C14.461 11.1724 13.9052 10.6166 13.9052 9.93103V8.06896Z" fill="white"/><path d="M13.9052 14.8966C13.9052 14.211 14.461 13.6552 15.1466 13.6552H17.0086C17.6942 13.6552 18.25 14.211 18.25 14.8966V16.7586C18.25 17.4442 17.6942 18 17.0086 18H15.1466C14.461 18 13.9052 17.4442 13.9052 16.7586V14.8966Z" fill="white"/></svg>