<svg width="16" height="16" viewBox="0 0 16 16" fill="none" xmlns="http://www.w3.org/2000/svg"><path d="M7.99993 3.23324L5.43326 5.7999C5.29993 5.93324 5.14437 5.99712 4.96659 5.99157C4.78882 5.98601 4.63326 5.92212 4.49993 5.7999C4.36659 5.66657 4.29715 5.50824 4.29159 5.3249C4.28604 5.14157 4.34993 4.98324 4.48326 4.8499L7.04993 2.28324C7.30548 2.02768 7.62215 1.8999 7.99993 1.8999C8.3777 1.8999 8.69437 2.02768 8.94993 2.28324L11.5166 4.8499C11.6499 4.98324 11.7138 5.14157 11.7083 5.3249C11.7027 5.50824 11.6333 5.66657 11.4999 5.7999C11.3666 5.92212 11.211 5.98601 11.0333 5.99157C10.8555 5.99712 10.6999 5.93324 10.5666 5.7999L7.99993 3.23324Z" fill="#6D6D71"/><path d="M10.5833 10.1834L7.99999 12.7667L5.43332 10.1834C5.29999 10.0501 5.14166 9.9834 4.95832 9.9834C4.77499 9.9834 4.61666 10.0501 4.48332 10.1834C4.34999 10.3167 4.28055 10.4751 4.27499 10.6584C4.26944 10.8417 4.33332 11.0001 4.46666 11.1334L7.04999 13.7167C7.30555 13.9723 7.62221 14.1001 7.99999 14.1001C8.37777 14.1001 8.69444 13.9723 8.94999 13.7167L11.5167 11.1334C11.65 11.0001 11.7167 10.8417 11.7167 10.6584C11.7167 10.4751 11.65 10.3167 11.5167 10.1834C11.3833 10.0501 11.2278 9.9834 11.05 9.9834C10.8722 9.9834 10.7167 10.0501 10.5833 10.1834Z" fill="#6D6D71"/></svg>