<svg width="20" height="20" viewBox="0 0 20 20" fill="none" xmlns="http://www.w3.org/2000/svg" class=""><path fill-rule="evenodd" clip-rule="evenodd" d="M12.356 1.43181C12.356 0.998458 12.617 0.607777 13.0174 0.44194C13.4177 0.276104 13.8786 0.367771 14.185 0.674197L17.6122 4.10137C18.0306 4.51979 18.0306 5.19819 17.6122 5.6166L14.185 9.04377C13.8786 9.3502 13.4177 9.44187 13.0174 9.27603C12.617 9.1102 12.356 8.71951 12.356 8.28616V6.28741H10.0002C7.00363 6.28741 4.57443 8.71663 4.57443 11.7132C4.57443 14.7097 7.00363 17.139 10.0002 17.139C12.9968 17.139 15.426 14.7097 15.426 11.7132C15.426 10.9242 16.0656 10.2846 16.8546 10.2846C17.6436 10.2846 18.2832 10.9242 18.2832 11.7132C18.2832 16.2877 14.5747 19.9962 10.0002 19.9962C5.42567 19.9962 1.71729 16.2877 1.71729 11.7132C1.71729 7.13867 5.42567 3.43027 10.0002 3.43027H12.356V1.43181Z" fill="#6D6D71"/></svg>