<svg width="14" height="14" viewBox="0 0 14 14" fill="none" xmlns="http://www.w3.org/2000/svg" class="w-4 h-4"><path fill-rule="evenodd" clip-rule="evenodd" d="M0.962425 6.19388C4.72051 4.55655 7.22648 3.47712 8.48036 2.95559C12.0604 1.46652 12.8043 1.20785 13.2892 1.19931C13.3958 1.19743 13.6343 1.22386 13.7887 1.34919C13.9191 1.45501 13.955 1.59797 13.9722 1.6983C13.9894 1.79864 14.0107 2.0272 13.9938 2.20579C13.7997 4.24421 12.9603 9.19093 12.5332 11.474C12.3525 12.44 11.9967 12.764 11.6522 12.7957C10.9036 12.8645 10.3351 12.3009 9.61005 11.8256C8.47545 11.0819 7.83447 10.6189 6.73314 9.89312C5.46036 9.05438 6.28545 8.5934 7.0108 7.84002C7.20063 7.64285 10.4991 4.64266 10.5629 4.37049C10.5709 4.33645 10.5783 4.20957 10.5029 4.14258C10.4276 4.07558 10.3163 4.09849 10.236 4.11671C10.1222 4.14254 8.30969 5.34056 4.7984 7.71078C4.28391 8.06407 3.81791 8.2362 3.40038 8.22718C2.9401 8.21724 2.05469 7.96693 1.39648 7.75297C0.589161 7.49054 -0.052481 7.35179 0.00339163 6.90611C0.0324935 6.67397 0.352171 6.43656 0.962425 6.19388Z" fill="#6D6D71"/></svg>