<svg width="18" height="18" viewBox="0 0 18 18" fill="none" xmlns="http://www.w3.org/2000/svg"><g clip-path="url(#clip0_9737_9603)"><rect width="18" height="18" rx="9" fill="#35AFF1"/><path fill-rule="evenodd" clip-rule="evenodd" d="M12.3047 4.9375C12.5363 4.9375 12.768 4.97184 13.0106 5.08437C13.3015 5.22029 13.4549 5.43366 13.5631 5.5915C13.7046 5.82319 13.7792 6.08949 13.7787 6.36094C13.7797 6.62826 13.7123 6.89138 13.5828 7.12528L9.43926 14.2418C9.34813 14.399 9.17989 14.4956 8.99811 14.495C8.81634 14.4944 8.64874 14.3967 8.55866 14.2388L4.49182 7.13697L4.48817 7.13112C4.39536 6.97767 4.25139 6.74092 4.22582 6.43475C4.17874 5.85821 4.49448 5.313 5.01799 5.06684C5.29277 4.93896 5.5712 4.9375 5.74659 4.9375H12.3047ZM8.49143 5.95467H5.74659C5.56608 5.95467 5.49666 5.96563 5.44842 5.98828C5.3089 6.05289 5.22518 6.19836 5.23942 6.35145C5.24307 6.39529 5.26061 6.44425 5.36438 6.61524L5.37096 6.6262L8.49143 12.0752V5.95467ZM9.50868 12.1022L12.7022 6.61743C12.7425 6.53798 12.763 6.45001 12.7622 6.36094C12.7622 6.28276 12.7461 6.2148 12.7095 6.14465C12.6856 6.10797 12.6587 6.07327 12.6292 6.04089C12.6156 6.02608 12.5992 6.01416 12.5809 6.00581C12.4941 5.96746 12.3995 5.94994 12.3047 5.95466H9.50868V12.1022Z" fill="white"/></g><defs><clipPath id="clip0_9737_9603"><rect width="18" height="18" fill="white"/></clipPath></defs></svg>