<svg width="13" height="12" viewBox="0 0 13 12" fill="none" xmlns="http://www.w3.org/2000/svg" class="shrink-0 text-white w-3.5 h-3.5"><path fill-rule="evenodd" clip-rule="evenodd" d="M2.67375 5.28873e-05L10.8899 0C11.1805 0 11.471 0.0426911 11.7746 0.18421C12.1384 0.353822 12.3314 0.621164 12.4666 0.818871C12.4771 0.834253 12.4869 0.850105 12.496 0.866323C12.655 1.14926 12.7369 1.45474 12.7369 1.78334C12.7369 2.09557 12.6626 2.43574 12.496 2.73222C12.4944 2.7351 12.4928 2.73787 12.4912 2.7407L7.30038 11.6574C7.18591 11.8541 6.97523 11.9747 6.7477 11.9739C6.52017 11.9731 6.31033 11.8509 6.19727 11.6535L1.10177 2.75582C1.10031 2.75341 1.09884 2.751 1.09738 2.74854C0.980761 2.55638 0.800424 2.25922 0.768877 1.87573C0.739893 1.52306 0.819153 1.16971 0.996352 0.863341C1.17355 0.556918 1.44032 0.311968 1.76118 0.162027C2.10522 0.00125562 2.45386 5.28873e-05 2.67375 5.28873e-05ZM6.11304 1.27382H2.67375C2.44779 1.27382 2.36105 1.28774 2.30041 1.31609C2.21655 1.35523 2.14613 1.41963 2.09904 1.50104C2.05196 1.58249 2.03067 1.67688 2.03841 1.77136C2.04286 1.82551 2.06493 1.88745 2.19515 2.10222C2.19787 2.10671 2.20054 2.11127 2.20316 2.11582L6.11304 8.94318V1.27382ZM7.38686 1.27382V8.97692L11.3873 2.10499C11.4325 2.02295 11.4631 1.9044 11.4631 1.78334C11.4631 1.68514 11.4427 1.59986 11.3972 1.51197C11.3494 1.44328 11.3203 1.40692 11.296 1.38202C11.2751 1.36072 11.2591 1.34932 11.2364 1.33875C11.1418 1.29465 11.045 1.27382 10.8899 1.27382H7.38686Z" fill="currentColor"/></svg>