<svg width="98" height="20" viewBox="0 0 98 20" fill="none" xmlns="http://www.w3.org/2000/svg" class="shrink-0"><path d="M7.72226 0.0146507C7.46593 0.0289843 6.87405 0.109252 6.57019 0.170887C5.17331 0.453259 3.94491 1.03807 2.85477 1.94109C2.62291 2.13316 2.12608 2.6248 1.92303 2.86417C1.13818 3.79012 0.582305 4.82931 0.241004 6.0104C0.0249911 6.75575 -0.00957105 7.03382 0.00194966 7.87377C0.00626992 8.18051 0.0134704 9.03909 0.0177906 9.78014C0.0221109 10.5212 0.0278712 11.4729 0.0321915 11.8943C0.0365118 12.3158 0.0422721 13.1772 0.0465924 13.8079C0.0739541 18.085 0.0811545 18.7501 0.105636 18.8949C0.132998 19.0583 0.186281 19.2203 0.243885 19.322C0.436856 19.656 0.772397 19.8696 1.25483 19.9685C1.39596 19.9957 1.45788 20 1.7819 20C2.17072 20 2.32625 19.9857 2.71796 19.9126C3.1039 19.8409 3.41352 19.7363 3.69722 19.58C3.94635 19.4424 4.39854 19.1787 4.52383 19.097C4.6448 19.0181 4.80321 18.9207 5.18051 18.6913C5.40804 18.5537 5.83143 18.3402 6.10217 18.2255C6.53707 18.042 7.07278 17.9116 7.55089 17.8715C7.83027 17.8471 8.84409 17.8614 9.06155 17.8915C9.50077 17.9517 9.92704 18.0664 10.3072 18.2255C10.5751 18.3387 10.9999 18.5523 11.2289 18.6913C11.6062 18.9207 11.7646 19.0181 11.8856 19.097C12.0108 19.1787 12.463 19.4424 12.7122 19.58C12.9959 19.7363 13.3055 19.8409 13.6914 19.9126C14.0831 19.9857 14.2387 20 14.6275 20C14.9515 20 15.0134 19.9957 15.1546 19.9685C15.637 19.8696 15.9725 19.656 16.1655 19.322C16.2231 19.2203 16.2764 19.0583 16.3038 18.8949C16.3282 18.7501 16.3354 18.085 16.3628 13.8079C16.3671 13.1772 16.3729 12.3158 16.3772 11.8943C16.3815 11.4729 16.3873 10.5212 16.3916 9.78014C16.3959 9.03909 16.4031 8.18051 16.4074 7.87377C16.419 7.03382 16.3844 6.75575 16.1684 6.0104C15.8271 4.82931 15.2712 3.79012 14.4864 2.86417C14.2833 2.6248 13.7865 2.13316 13.5546 1.94109C12.7323 1.26024 11.8712 0.780065 10.8761 0.448959C10.336 0.268356 9.87664 0.162287 9.26316 0.0777186C8.71881 0.00175043 8.25942 -0.0168833 7.72226 0.0146507ZM8.70872 2.30659C10.5362 2.47143 12.0584 3.26408 13.016 4.54837C13.533 5.24068 13.8542 6.0061 14.0443 6.99942C14.1062 7.31906 14.1047 7.24309 14.1105 12.3674L14.1163 17.2623L14.0817 17.3382C14.014 17.4873 13.8916 17.549 13.6626 17.5475C13.3285 17.5447 12.9555 17.3855 12.5134 17.0559C12.1721 16.8007 12.0022 16.6101 11.8683 16.3306C11.6926 15.9651 11.6955 16.0009 11.7012 14.7611C11.7027 14.1892 11.707 13.6574 11.7113 13.5785C11.7185 13.408 11.7401 10.977 11.7401 10.2746C11.7401 9.82027 11.7372 9.7658 11.707 9.60813C11.5846 8.96169 11.3124 8.41988 10.8991 7.9913C10.5722 7.65446 10.228 7.42513 9.79743 7.25742C9.33084 7.07539 8.8945 7.00659 8.20469 7.00659C7.51489 7.00659 7.07854 7.07539 6.61196 7.25742C6.18137 7.42513 5.83719 7.65446 5.51029 7.9913C5.09698 8.41988 4.82481 8.96169 4.7024 9.60813C4.67216 9.7658 4.66928 9.82027 4.66928 10.2746C4.66928 10.977 4.69088 13.408 4.69808 13.5785C4.7024 13.6574 4.70672 14.1892 4.70816 14.7611C4.71392 16.0009 4.7168 15.9651 4.54111 16.3306C4.40718 16.6101 4.23725 16.8007 3.89595 17.0559C3.45384 17.3855 3.08086 17.5447 2.74676 17.5475C2.51778 17.549 2.39538 17.4873 2.32769 17.3382L2.29313 17.2623L2.29889 12.3674C2.30465 7.24309 2.30321 7.31906 2.36514 6.99942C2.4933 6.32431 2.64739 5.8556 2.91237 5.32812C3.3948 4.36777 4.12348 3.61669 5.09698 3.07201C5.83719 2.6592 6.80061 2.37826 7.72947 2.30516C7.83603 2.29656 7.95268 2.28796 7.98868 2.28509C8.08805 2.27649 8.52295 2.28939 8.70872 2.30659ZM8.49991 9.17096C8.87146 9.19676 9.02843 9.25696 9.21276 9.4433C9.37837 9.61244 9.45181 9.78444 9.47197 10.0596C9.48637 10.2374 9.50653 11.6951 9.52382 13.8222C9.53246 14.8127 9.53102 14.9345 9.51085 15.0148C9.43597 15.3029 9.18972 15.5652 8.89162 15.6756C8.77065 15.7214 8.60072 15.7358 8.17877 15.7358C7.78131 15.7358 7.6445 15.7229 7.51489 15.6741C7.21967 15.5652 6.97342 15.3014 6.89853 15.0148C6.87405 14.9187 6.87549 14.3898 6.90861 11.4787C6.92446 10.1657 6.93454 9.92921 6.97774 9.80164C7.08431 9.4949 7.33488 9.25839 7.61426 9.19819C7.78419 9.16236 8.17877 9.14946 8.49991 9.17096Z" fill="white" class=""/><path d="M22.8356 1.84961H29.6839C33.0727 1.84961 35.3908 4.1582 35.3908 7.56836C35.3908 10.9199 32.9903 13.2168 29.5544 13.2168H25.8714V18.7598H22.8356V1.84961ZM25.8714 4.38086V10.709H28.872C31.0371 10.709 32.3079 9.58398 32.3079 7.56836C32.3079 5.49414 31.0724 4.38086 28.8837 4.38086H25.8714Z" fill="white"/><path d="M42.6352 19.0176C38.7757 19.0176 36.4459 16.5098 36.4459 12.3496C36.4459 8.21289 38.811 5.68164 42.6352 5.68164C46.4712 5.68164 48.8245 8.20117 48.8245 12.3496C48.8245 16.5098 46.4829 19.0176 42.6352 19.0176ZM42.6352 16.5801C44.6708 16.5801 45.824 15.0332 45.824 12.3496C45.824 9.67773 44.6591 8.11914 42.6352 8.11914C40.5995 8.11914 39.4346 9.67773 39.4346 12.3496C39.4346 15.0332 40.5995 16.5801 42.6352 16.5801Z" fill="white"/><path d="M50.7621 18.7598V5.93945H53.5744V7.93164H53.7744C54.1274 6.66602 55.5159 5.72852 57.175 5.72852C57.5986 5.72852 58.1163 5.77539 58.387 5.85742V8.55273C58.1634 8.4707 57.3868 8.38867 56.8926 8.38867C54.9981 8.38867 53.6803 9.56055 53.6803 11.3535V18.7598H50.7621Z" fill="white"/><path d="M61.3012 2.79883H64.2076V6.02148H66.961V8.3418H64.2076V14.6348C64.2076 15.9004 64.7489 16.4629 65.9726 16.4629C66.3845 16.4629 66.608 16.4395 66.961 16.4043V18.6777C66.5374 18.7598 65.9962 18.8184 65.4314 18.8184C62.4779 18.8184 61.3012 17.8223 61.3012 15.3379V8.3418H59.2656V6.02148H61.3012V2.79883Z" fill="white" class=""/><path d="M73.2759 16.6855C75.0409 16.6855 76.3588 15.5488 76.3588 14.0605V13.041L73.4524 13.2285C71.8168 13.334 71.0519 13.9199 71.0519 14.9629C71.0519 16.041 71.9815 16.6855 73.2759 16.6855ZM72.4169 18.9707C69.9341 18.9707 68.1573 17.4707 68.1573 15.127C68.1573 12.8066 69.9106 11.4707 73.0405 11.2832L76.3588 11.084V10.0059C76.3588 8.75195 75.5116 8.04883 73.9348 8.04883C72.5934 8.04883 71.6756 8.51758 71.405 9.38477H68.6515C68.8869 7.12305 71.0167 5.68164 74.076 5.68164C77.3825 5.68164 79.2416 7.28711 79.2416 10.0059V18.7598H76.4294V17.002H76.2293C75.5116 18.2441 74.0995 18.9707 72.4169 18.9707Z" fill="white"/><path d="M81.8735 18.7598V0.982422H84.7916V18.7598H81.8735Z" fill="white"/><path d="M87.1881 9.60742C87.1881 7.28711 89.3061 5.68164 92.342 5.68164C95.4013 5.68164 97.3193 7.0293 97.5311 9.36133H94.7895C94.5777 8.45898 93.7187 7.88477 92.3537 7.88477C91.0241 7.88477 90.0239 8.51758 90.0239 9.44336C90.0239 10.1699 90.6358 10.6152 91.9301 10.9082L94.2011 11.4238C96.6604 11.9746 97.8018 13.0293 97.8018 14.916C97.8018 17.377 95.5308 19.0176 92.3184 19.0176C89.1061 19.0176 87.0822 17.6348 86.8587 15.3027H89.7415C90.0239 16.252 90.93 16.8145 92.389 16.8145C93.8599 16.8145 94.8836 16.1699 94.8836 15.2207C94.8836 14.4941 94.3306 14.0371 93.1068 13.7676L90.8241 13.2402C88.353 12.6777 87.1881 11.541 87.1881 9.60742Z" fill="white"/></svg>